<?xml version="1.0" encoding="UTF-8" standalone="no"?>
<!-- Created with Inkscape (http://www.inkscape.org/) -->

<svg
   xmlns:dc="http://purl.org/dc/elements/1.1/"
   xmlns:cc="http://creativecommons.org/ns#"
   xmlns:rdf="http://www.w3.org/1999/02/22-rdf-syntax-ns#"
   xmlns:svg="http://www.w3.org/2000/svg"
   xmlns="http://www.w3.org/2000/svg"
   xmlns:xlink="http://www.w3.org/1999/xlink"
   xmlns:sodipodi="http://sodipodi.sourceforge.net/DTD/sodipodi-0.dtd"
   xmlns:inkscape="http://www.inkscape.org/namespaces/inkscape"
   width="13.229167mm"
   height="13.229167mm"
   viewBox="0 0 13.229167 13.229167"
   version="1.1"
   id="svg8"
   sodipodi:docname="arrow_right.svg"
   inkscape:version="0.92.3 (2405546, 2018-03-11)"
   inkscape:export-filename="D:\Dropbox\Melle\Development\Little Games Studio\Games\Little Rocket\src\assets\images\arrow_right.png"
   inkscape:export-xdpi="90"
   inkscape:export-ydpi="90">
  <defs
     id="defs2">
    <symbol
       id="RightArrow">
      <title
         id="title2172">Right Arrow</title>
      <path
         inkscape:connector-curvature="0"
         d="m 16.66875,9.525 -5.820833,5.820833 H 6.8791667 L 11.1125,11.1125 H 2.6458333 V 7.9375 H 11.1125 L 6.8791667,3.7041667 h 3.9687503 z"
         style="stroke:none;stroke-width:0.26458332"
         id="path2174" />
    </symbol>
  </defs>
  <sodipodi:namedview
     id="base"
     pagecolor="#ffffff"
     bordercolor="#666666"
     borderopacity="1.0"
     inkscape:pageopacity="0.0"
     inkscape:pageshadow="2"
     inkscape:zoom="5.6568543"
     inkscape:cx="-32.976275"
     inkscape:cy="18.542909"
     inkscape:document-units="mm"
     inkscape:current-layer="layer1"
     showgrid="false"
     inkscape:pagecheckerboard="true"
     guidetolerance="20"
     objecttolerance="20"
     gridtolerance="10"
     inkscape:window-width="1920"
     inkscape:window-height="1017"
     inkscape:window-x="-8"
     inkscape:window-y="-8"
     inkscape:window-maximized="1" />
  <metadata
     id="metadata5">
    <rdf:RDF>
      <cc:Work
         rdf:about="">
        <dc:format>image/svg+xml</dc:format>
        <dc:type
           rdf:resource="http://purl.org/dc/dcmitype/StillImage" />
        <dc:title />
      </cc:Work>
    </rdf:RDF>
  </metadata>
  <g
     inkscape:label="Ebene 1"
     inkscape:groupmode="layer"
     id="layer1"
     transform="translate(-0.53453064,-222.29884)">
    <path
       style="opacity:1;fill:#ffffff;fill-opacity:1;stroke:none;stroke-width:1.25386786;stroke-linecap:round;stroke-linejoin:round;stroke-miterlimit:4;stroke-dasharray:none;stroke-dashoffset:0;stroke-opacity:1;paint-order:normal"
       d="M 23.822266,0.02734375 A 25.000001,25.000001 0 0 0 8.0117188,6.6582031 25.000001,25.000001 0 0 0 6.6582031,41.988281 25.000001,25.000001 0 0 0 41.988281,43.341797 25.000001,25.000001 0 0 0 43.341797,8.0117188 25.000001,25.000001 0 0 0 23.822266,0.02734375 Z m 0.253906,5.38671875 a 19.608312,19.608312 0 0 1 15.308594,6.2617185 h 0.002 a 19.608312,19.608312 0 0 1 -1.0625,27.710938 19.608312,19.608312 0 0 1 -27.710938,-1.0625 19.608312,19.608312 0 0 1 1.0625,-27.708985 19.608312,19.608312 0 0 1 12.400391,-5.2011715 z"
       transform="matrix(0.26458333,0,0,0.26458333,0.53453064,222.29884)"
       id="path815"
       inkscape:connector-curvature="0" />
    <use
       id="use9296"
       transform="matrix(0.61028773,0,0,0.61028773,1.2553875,223.10043)"
       style="fill:#ffffff;stroke:#000000"
       xlink:href="#RightArrow"
       x="0"
       y="0"
       width="100%"
       height="100%" />
  </g>
</svg>
